<?xml version="1.0" encoding="UTF-8" standalone="no"?>
<!-- Created with Inkscape (http://www.inkscape.org/) -->

<svg
   xmlns:dc="http://purl.org/dc/elements/1.1/"
   xmlns:cc="http://creativecommons.org/ns#"
   xmlns:rdf="http://www.w3.org/1999/02/22-rdf-syntax-ns#"
   xmlns:svg="http://www.w3.org/2000/svg"
   xmlns="http://www.w3.org/2000/svg"
   xmlns:sodipodi="http://sodipodi.sourceforge.net/DTD/sodipodi-0.dtd"
   xmlns:inkscape="http://www.inkscape.org/namespaces/inkscape"
   width="64px"
   height="64px"
   id="svg2985"
   version="1.1"
   inkscape:version="0.48.2 r9819"
   sodipodi:docname="fire.svg"
   inkscape:export-filename="/Users/adefossez/work/eat-em-all-tablet/images/fire_1.png"
   inkscape:export-xdpi="90"
   inkscape:export-ydpi="90">
  <defs
     id="defs2987" />
  <sodipodi:namedview
     id="base"
     pagecolor="#ffffff"
     bordercolor="#666666"
     borderopacity="1.0"
     inkscape:pageopacity="0.0"
     inkscape:pageshadow="2"
     inkscape:zoom="7.7781746"
     inkscape:cx="22.838213"
     inkscape:cy="29.261105"
     inkscape:current-layer="layer1"
     showgrid="true"
     inkscape:document-units="px"
     inkscape:grid-bbox="true"
     inkscape:window-width="1222"
     inkscape:window-height="756"
     inkscape:window-x="58"
     inkscape:window-y="0"
     inkscape:window-maximized="1" />
  <metadata
     id="metadata2990">
    <rdf:RDF>
      <cc:Work
         rdf:about="">
        <dc:format>image/svg+xml</dc:format>
        <dc:type
           rdf:resource="http://purl.org/dc/dcmitype/StillImage" />
        <dc:title></dc:title>
      </cc:Work>
    </rdf:RDF>
  </metadata>
  <g
     id="layer1"
     inkscape:label="Layer 1"
     inkscape:groupmode="layer">
    <path
       style="fill:#ff0008;fill-opacity:0.74336283999999986;stroke:#ffe10a;stroke-width:2;stroke-linejoin:round;stroke-miterlimit:4;stroke-opacity:0.73893803"
       d="M 4.5840678,17.350256 C 14.712697,14.292593 14.521432,51.266506 16.891837,45.462714 17.484838,42.528857 18.33266,38.898722 19.43288,29.974912 20.724581,22.270427 18.446219,8.5380583 18.697598,8.1487681 24.025817,2.8658894 26.400252,41.625316 29.167975,43.508051 c 2.211339,1.504257 0.792204,-8.943462 2.800618,-18.529743 3.872,-18.4812902 9.639608,-15.6492473 11.314645,-18.0749752 0.907759,-1.3145837 -0.397262,0.1986904 -4.959661,11.6003652 -2.309611,5.771839 0.436958,13.268538 0.664738,18.236615 0.407023,8.87752 7.699666,7.448858 9.325325,7.290827 0.99985,-0.0972 -6.445145,-5.246144 -4.491058,-17.314907 1.099436,-6.790295 4.111259,-9.10717 4.426782,-10.203661 1.27228,-4.421366 -2.584404,19.341414 3.129002,18.512293 C 56.704288,31.016278 47.537419,5.1739825 57.090909,7.388869 54.68775,21.574949 60.444517,42.378176 61.414214,59.937112 42.851309,64.870592 20.964919,56.24386 1.4545456,60.247495 3.9029413,53.211444 4.228104,55.506505 7.4536202,47.051716 8.8934823,43.27752 9.3684929,29.710753 4.5840678,17.350256 z"
       id="rect2993"
       inkscape:connector-curvature="0"
       sodipodi:nodetypes="ccccssssssssccccsc" />
  </g>
</svg>
