<?xml version="1.0" encoding="UTF-8" standalone="no"?>
<!-- Created with Inkscape (http://www.inkscape.org/) -->

<svg
   xmlns:dc="http://purl.org/dc/elements/1.1/"
   xmlns:cc="http://creativecommons.org/ns#"
   xmlns:rdf="http://www.w3.org/1999/02/22-rdf-syntax-ns#"
   xmlns:svg="http://www.w3.org/2000/svg"
   xmlns="http://www.w3.org/2000/svg"
   xmlns:sodipodi="http://sodipodi.sourceforge.net/DTD/sodipodi-0.dtd"
   xmlns:inkscape="http://www.inkscape.org/namespaces/inkscape"
   width="64px"
   height="64px"
   id="svg2985"
   version="1.1"
   inkscape:version="0.48.2 r9819"
   sodipodi:docname="fire_3.svg"
   inkscape:export-filename="/Users/adefossez/work/eat-em-all-tablet/images/fire_3.png"
   inkscape:export-xdpi="90"
   inkscape:export-ydpi="90">
  <defs
     id="defs2987" />
  <sodipodi:namedview
     id="base"
     pagecolor="#ffffff"
     bordercolor="#666666"
     borderopacity="1.0"
     inkscape:pageopacity="0.0"
     inkscape:pageshadow="2"
     inkscape:zoom="7.7781746"
     inkscape:cx="22.838213"
     inkscape:cy="29.261105"
     inkscape:current-layer="layer1"
     showgrid="true"
     inkscape:document-units="px"
     inkscape:grid-bbox="true"
     inkscape:window-width="1222"
     inkscape:window-height="756"
     inkscape:window-x="58"
     inkscape:window-y="0"
     inkscape:window-maximized="0" />
  <metadata
     id="metadata2990">
    <rdf:RDF>
      <cc:Work
         rdf:about="">
        <dc:format>image/svg+xml</dc:format>
        <dc:type
           rdf:resource="http://purl.org/dc/dcmitype/StillImage" />
        <dc:title></dc:title>
      </cc:Work>
    </rdf:RDF>
  </metadata>
  <g
     id="layer1"
     inkscape:label="Layer 1"
     inkscape:groupmode="layer">
    <path
       style="fill:#ff0008;fill-opacity:0.74336285;stroke:#ffe10a;stroke-width:2;stroke-linejoin:round;stroke-miterlimit:4;stroke-opacity:0.73893804"
       d="m 5.355457,24.549889 c 6.785943,11.341602 5.566159,25.945228 7.936564,20.141436 0.593001,-2.933857 -0.101956,-5.921168 0.998264,-14.844978 1.291701,-7.704485 -0.472402,-18.736991 -0.221023,-19.126282 11.4456,15.695991 9.845705,43.579371 13.813064,34.716459 3.017752,-6.741528 0.792222,-9.972312 2.800618,-19.558262 3.872094,-18.4812704 4.917728,-7.533711 8.743347,-19.8748833 1.443674,-4.6571875 3.459685,1.0986445 -1.102714,12.5003193 -2.309611,5.771839 0.436958,13.268538 0.664738,18.236615 0.407023,8.87752 7.699666,7.448858 9.325325,7.290827 0.99985,-0.0972 -5.416626,-1.903457 -3.462539,-13.97222 1.099436,-6.790295 1.668527,-2.036102 1.98405,-3.132593 1.27228,-4.421366 -1.170191,8.927659 4.543215,8.098538 5.325922,-4.008587 -3.209871,-11.797316 2.498422,-15.036639 -0.273207,6.35798 6.531646,14.144524 7.537426,39.948886 C 42.851309,64.870592 20.964919,56.24386 1.4545456,60.247495 3.9029413,53.211444 1.9139364,55.37794 5.1394526,46.923151 6.5793147,43.148955 6.6686306,36.653256 5.355457,24.549889 z"
       id="rect2993"
       inkscape:connector-curvature="0"
       sodipodi:nodetypes="ccccssssssssccccsc" />
  </g>
</svg>
