<?xml version="1.0" encoding="UTF-8" standalone="no"?>
<!-- Created with Inkscape (http://www.inkscape.org/) -->

<svg
   xmlns:dc="http://purl.org/dc/elements/1.1/"
   xmlns:cc="http://creativecommons.org/ns#"
   xmlns:rdf="http://www.w3.org/1999/02/22-rdf-syntax-ns#"
   xmlns:svg="http://www.w3.org/2000/svg"
   xmlns="http://www.w3.org/2000/svg"
   xmlns:sodipodi="http://sodipodi.sourceforge.net/DTD/sodipodi-0.dtd"
   xmlns:inkscape="http://www.inkscape.org/namespaces/inkscape"
   width="64px"
   height="64px"
   id="svg4323"
   version="1.1"
   inkscape:version="0.48.3.1 r9886"
   sodipodi:docname="zombie_spawn_right_red_02.svg"
   inkscape:export-filename="D:\Work\Eat-em-all-tablet\images\zombie_spawn_right_red_02.png"
   inkscape:export-xdpi="90"
   inkscape:export-ydpi="90">
  <defs
     id="defs4325" />
  <sodipodi:namedview
     id="base"
     pagecolor="#ffffff"
     bordercolor="#666666"
     borderopacity="1.0"
     inkscape:pageopacity="0.0"
     inkscape:pageshadow="2"
     inkscape:zoom="11"
     inkscape:cx="-13.425029"
     inkscape:cy="15.313185"
     inkscape:current-layer="layer1"
     showgrid="true"
     inkscape:document-units="px"
     inkscape:grid-bbox="true"
     inkscape:window-width="1920"
     inkscape:window-height="1028"
     inkscape:window-x="-8"
     inkscape:window-y="-8"
     inkscape:window-maximized="1"
     showguides="false">
    <inkscape:grid
       type="xygrid"
       id="grid2988" />
  </sodipodi:namedview>
  <metadata
     id="metadata4328">
    <rdf:RDF>
      <cc:Work
         rdf:about="">
        <dc:format>image/svg+xml</dc:format>
        <dc:type
           rdf:resource="http://purl.org/dc/dcmitype/StillImage" />
        <dc:title></dc:title>
      </cc:Work>
    </rdf:RDF>
  </metadata>
  <g
     id="layer1"
     inkscape:label="Layer 1"
     inkscape:groupmode="layer">
    <rect
       style="fill:#fbbd83;fill-opacity:1;stroke:#c32a00;stroke-width:2;stroke-linecap:round;stroke-linejoin:round;stroke-miterlimit:4;stroke-opacity:1;stroke-dasharray:none"
       id="rect4389"
       width="10"
       height="13"
       x="27"
       y="47"
       ry="0.44174764" />
    <path
       sodipodi:type="arc"
       style="fill:#fbbd83;fill-opacity:1;stroke:#c32a00;stroke-width:3;stroke-linecap:round;stroke-linejoin:round;stroke-miterlimit:4;stroke-opacity:1;stroke-dasharray:none"
       id="path4337"
       sodipodi:cx="30.09091"
       sodipodi:cy="14.909091"
       sodipodi:rx="7"
       sodipodi:ry="7.4545455"
       d="m 37.09091,14.909091 a 7,7.4545455 0 1 1 -14,0 7,7.4545455 0 1 1 14,0 z"
       transform="translate(1.90909,24.09091)" />
    <rect
       style="fill:#fbbd83;fill-opacity:1;stroke:#c32a00;stroke-width:2;stroke-linecap:round;stroke-linejoin:round;stroke-miterlimit:4;stroke-opacity:1;stroke-dasharray:none"
       id="rect4903"
       width="15"
       height="3.9999995"
       x="30"
       y="48"
       ry="1.3333331" />
    <path
       sodipodi:type="arc"
       style="fill:#c87137;fill-opacity:1;stroke:#c87137;stroke-width:2;stroke-linecap:round;stroke-linejoin:round;stroke-miterlimit:4;stroke-opacity:1;stroke-dasharray:none"
       id="path2988"
       sodipodi:cx="27.5"
       sodipodi:cy="61.5"
       sodipodi:rx="2.5"
       sodipodi:ry="1.5"
       d="m 30,61.5 a 2.5,1.5 0 1 1 -5,0 2.5,1.5 0 1 1 5,0 z"
       transform="matrix(0.7,0,0,0.66666667,7.75,18)" />
    <path
       sodipodi:type="arc"
       style="fill:#c87137;fill-opacity:1;stroke:#c87137;stroke-width:2;stroke-linecap:round;stroke-linejoin:round;stroke-miterlimit:4;stroke-opacity:1;stroke-dasharray:none"
       id="path2988-1"
       sodipodi:cx="27.5"
       sodipodi:cy="61.5"
       sodipodi:rx="2.5"
       sodipodi:ry="1.5"
       d="m 30,61.5 a 2.5,1.5 0 1 1 -5,0 2.5,1.5 0 1 1 5,0 z"
       transform="matrix(0.7,0,0,0.66666667,9.75,21)" />
    <path
       sodipodi:type="arc"
       style="fill:#c87137;fill-opacity:1;stroke:#c87137;stroke-width:2;stroke-linecap:round;stroke-linejoin:round;stroke-miterlimit:4;stroke-opacity:1;stroke-dasharray:none"
       id="path2988-1-7"
       sodipodi:cx="27.5"
       sodipodi:cy="61.5"
       sodipodi:rx="2.5"
       sodipodi:ry="1.5"
       d="m 30,61.5 a 2.5,1.5 0 1 1 -5,0 2.5,1.5 0 1 1 5,0 z"
       transform="matrix(0.7,0,0,0.66666667,11.75,19)" />
    <path
       sodipodi:type="arc"
       style="fill:#c87137;fill-opacity:1;stroke:#c87137;stroke-width:2;stroke-linecap:round;stroke-linejoin:round;stroke-miterlimit:4;stroke-opacity:1;stroke-dasharray:none"
       id="path2988-1-4"
       sodipodi:cx="27.5"
       sodipodi:cy="61.5"
       sodipodi:rx="2.5"
       sodipodi:ry="1.5"
       d="m 30,61.5 a 2.5,1.5 0 1 1 -5,0 2.5,1.5 0 1 1 5,0 z"
       transform="matrix(0.7,0,0,0.66666667,15.75,19)" />
    <path
       sodipodi:type="arc"
       style="fill:#c87137;fill-opacity:1;stroke:#c87137;stroke-width:2;stroke-linecap:round;stroke-linejoin:round;stroke-miterlimit:4;stroke-opacity:1;stroke-dasharray:none"
       id="path2988-1-0"
       sodipodi:cx="27.5"
       sodipodi:cy="61.5"
       sodipodi:rx="2.5"
       sodipodi:ry="1.5"
       d="m 30,61.5 a 2.5,1.5 0 1 1 -5,0 2.5,1.5 0 1 1 5,0 z"
       transform="matrix(0.7,0,0,0.66666667,18.75,18)" />
  </g>
</svg>
