<?xml version="1.0" encoding="UTF-8" standalone="no"?>
<!-- Created with Inkscape (http://www.inkscape.org/) -->

<svg
   xmlns:dc="http://purl.org/dc/elements/1.1/"
   xmlns:cc="http://creativecommons.org/ns#"
   xmlns:rdf="http://www.w3.org/1999/02/22-rdf-syntax-ns#"
   xmlns:svg="http://www.w3.org/2000/svg"
   xmlns="http://www.w3.org/2000/svg"
   xmlns:sodipodi="http://sodipodi.sourceforge.net/DTD/sodipodi-0.dtd"
   xmlns:inkscape="http://www.inkscape.org/namespaces/inkscape"
   width="64px"
   height="64px"
   id="svg4323"
   version="1.1"
   inkscape:version="0.48.3.1 r9886"
   sodipodi:docname="zombie_spawn_left_blue_02.svg"
   inkscape:export-filename="D:\Work\Eat-em-all-tablet\images\zombie_spawn_left_blue_02.png"
   inkscape:export-xdpi="90"
   inkscape:export-ydpi="90">
  <defs
     id="defs4325" />
  <sodipodi:namedview
     id="base"
     pagecolor="#ffffff"
     bordercolor="#666666"
     borderopacity="1.0"
     inkscape:pageopacity="0.0"
     inkscape:pageshadow="2"
     inkscape:zoom="11"
     inkscape:cx="13.006921"
     inkscape:cy="21.822797"
     inkscape:current-layer="layer1"
     showgrid="false"
     inkscape:document-units="px"
     inkscape:grid-bbox="true"
     inkscape:window-width="1440"
     inkscape:window-height="878"
     inkscape:window-x="1912"
     inkscape:window-y="172"
     inkscape:window-maximized="1"
     showguides="false">
    <inkscape:grid
       type="xygrid"
       id="grid2988" />
  </sodipodi:namedview>
  <metadata
     id="metadata4328">
    <rdf:RDF>
      <cc:Work
         rdf:about="">
        <dc:format>image/svg+xml</dc:format>
        <dc:type
           rdf:resource="http://purl.org/dc/dcmitype/StillImage" />
        <dc:title></dc:title>
      </cc:Work>
    </rdf:RDF>
  </metadata>
  <g
     id="layer1"
     inkscape:label="Layer 1"
     inkscape:groupmode="layer">
    <rect
       style="fill:#ae7533;fill-opacity:1;stroke:#2f3db7;stroke-width:2;stroke-linecap:round;stroke-linejoin:round;stroke-miterlimit:4;stroke-opacity:1;stroke-dasharray:none"
       id="rect4389"
       width="10.340599"
       height="14.38631"
       x="26.8297"
       y="46.8297"
       ry="0.48885524" />
    <path
       sodipodi:type="arc"
       style="fill:#ae7533;fill-opacity:1;stroke:#2f3db7;stroke-width:3;stroke-linecap:round;stroke-linejoin:round;stroke-miterlimit:4;stroke-opacity:1;stroke-dasharray:none"
       id="path4337"
       sodipodi:cx="30.09091"
       sodipodi:cy="14.909091"
       sodipodi:rx="7"
       sodipodi:ry="7.4545455"
       d="m 37.09091,14.909091 a 7,7.4545455 0 1 1 -14,0 7,7.4545455 0 1 1 14,0 z"
       transform="translate(1.90909,24.090909)" />
    <rect
       style="fill:#ae7533;fill-opacity:1;stroke:#2f3db7;stroke-width:2;stroke-linecap:round;stroke-linejoin:round;stroke-miterlimit:4;stroke-opacity:1;stroke-dasharray:none"
       id="rect4903"
       width="15"
       height="3.9999995"
       x="18.90909"
       y="48"
       ry="1.3333331" />
    <path
       sodipodi:type="arc"
       style="fill:#c87137;fill-opacity:1;stroke:#c87137;stroke-width:2;stroke-linecap:round;stroke-linejoin:round;stroke-miterlimit:4;stroke-opacity:1;stroke-dasharray:none"
       id="path2988"
       sodipodi:cx="26.681818"
       sodipodi:cy="62.545456"
       sodipodi:rx="0.77272731"
       sodipodi:ry="0.54545456"
       d="m 27.454545,62.545456 a 0.77272731,0.54545456 0 1 1 -1.545454,0 0.77272731,0.54545456 0 1 1 1.545454,0 z"
       transform="translate(0.63636364,-2)" />
    <path
       sodipodi:type="arc"
       style="fill:#c87137;fill-opacity:1;stroke:#c87137;stroke-width:2;stroke-linecap:round;stroke-linejoin:round;stroke-miterlimit:4;stroke-opacity:1;stroke-dasharray:none"
       id="path2988-1"
       sodipodi:cx="26.681818"
       sodipodi:cy="62.545456"
       sodipodi:rx="0.77272731"
       sodipodi:ry="0.54545456"
       d="m 27.454545,62.545456 a 0.77272731,0.54545456 0 1 1 -1.545454,0 0.77272731,0.54545456 0 1 1 1.545454,0 z"
       transform="translate(2.4090914,-1.8181832)" />
    <path
       sodipodi:type="arc"
       style="fill:#c87137;fill-opacity:1;stroke:#c87137;stroke-width:2;stroke-linecap:round;stroke-linejoin:round;stroke-miterlimit:4;stroke-opacity:1;stroke-dasharray:none"
       id="path2988-7"
       sodipodi:cx="26.681818"
       sodipodi:cy="62.545456"
       sodipodi:rx="0.77272731"
       sodipodi:ry="0.54545456"
       d="m 27.454545,62.545456 a 0.77272731,0.54545456 0 1 1 -1.545454,0 0.77272731,0.54545456 0 1 1 1.545454,0 z"
       transform="translate(5.1363642,-2.1818196)" />
    <path
       sodipodi:type="arc"
       style="fill:#c87137;fill-opacity:1;stroke:#c87137;stroke-width:2;stroke-linecap:round;stroke-linejoin:round;stroke-miterlimit:4;stroke-opacity:1;stroke-dasharray:none"
       id="path2988-4"
       sodipodi:cx="26.681818"
       sodipodi:cy="62.545456"
       sodipodi:rx="0.77272731"
       sodipodi:ry="0.54545456"
       d="m 27.454545,62.545456 a 0.77272731,0.54545456 0 1 1 -1.545454,0 0.77272731,0.54545456 0 1 1 1.545454,0 z"
       transform="translate(6.2272732,-0.3636378)" />
    <path
       sodipodi:type="arc"
       style="fill:#c87137;fill-opacity:1;stroke:#c87137;stroke-width:2;stroke-linecap:round;stroke-linejoin:round;stroke-miterlimit:4;stroke-opacity:1;stroke-dasharray:none"
       id="path2988-0"
       sodipodi:cx="26.681818"
       sodipodi:cy="62.545456"
       sodipodi:rx="0.77272731"
       sodipodi:ry="0.54545456"
       d="m 27.454545,62.545456 a 0.77272731,0.54545456 0 1 1 -1.545454,0 0.77272731,0.54545456 0 1 1 1.545454,0 z"
       transform="matrix(1.0525469,0,0,0.57444147,6.8252262,25.525842)" />
    <path
       sodipodi:type="arc"
       style="fill:#c87137;fill-opacity:1;stroke:#c87137;stroke-width:2;stroke-linecap:round;stroke-linejoin:round;stroke-miterlimit:4;stroke-opacity:1;stroke-dasharray:none"
       id="path2988-9"
       sodipodi:cx="26.681818"
       sodipodi:cy="62.545456"
       sodipodi:rx="0.77272731"
       sodipodi:ry="0.54545456"
       d="m 27.454545,62.545456 a 0.77272731,0.54545456 0 1 1 -1.545454,0 0.77272731,0.54545456 0 1 1 1.545454,0 z"
       transform="translate(10.5,-2.4545469)" />
    <path
       sodipodi:type="arc"
       style="fill:#c87137;fill-opacity:1;stroke:#c87137;stroke-width:2;stroke-linecap:round;stroke-linejoin:round;stroke-miterlimit:4;stroke-opacity:1;stroke-dasharray:none"
       id="path2988-17"
       sodipodi:cx="26.681818"
       sodipodi:cy="62.545456"
       sodipodi:rx="0.77272731"
       sodipodi:ry="0.54545456"
       d="m 27.454545,62.545456 a 0.77272731,0.54545456 0 1 1 -1.545454,0 0.77272731,0.54545456 0 1 1 1.545454,0 z"
       transform="translate(-0.68181802,-1.0909105)" />
    <path
       sodipodi:type="arc"
       style="fill:#c87137;fill-opacity:1;stroke:#c87137;stroke-width:2;stroke-linecap:round;stroke-linejoin:round;stroke-miterlimit:4;stroke-opacity:1;stroke-dasharray:none"
       id="path2988-40"
       sodipodi:cx="26.681818"
       sodipodi:cy="62.545456"
       sodipodi:rx="0.77272731"
       sodipodi:ry="0.54545456"
       d="m 27.454545,62.545456 a 0.77272731,0.54545456 0 1 1 -1.545454,0 0.77272731,0.54545456 0 1 1 1.545454,0 z"
       transform="translate(12.136364,-1.4545468)" />
    <path
       sodipodi:type="arc"
       style="fill:#c87137;fill-opacity:1;stroke:#c87137;stroke-width:2;stroke-linecap:round;stroke-linejoin:round;stroke-miterlimit:4;stroke-opacity:1;stroke-dasharray:none"
       id="path2988-4-9"
       sodipodi:cx="26.681818"
       sodipodi:cy="62.545456"
       sodipodi:rx="0.77272731"
       sodipodi:ry="0.54545456"
       d="m 27.454545,62.545456 a 0.77272731,0.54545456 0 1 1 -1.545454,0 0.77272731,0.54545456 0 1 1 1.545454,0 z"
       transform="translate(3.9545457,-0.45454684)" />
    <path
       sodipodi:type="arc"
       style="fill:#c87137;fill-opacity:1;stroke:#c87137;stroke-width:2;stroke-linecap:round;stroke-linejoin:round;stroke-miterlimit:4;stroke-opacity:1;stroke-dasharray:none"
       id="path2988-4-4"
       sodipodi:cx="26.681818"
       sodipodi:cy="62.545456"
       sodipodi:rx="0.77272731"
       sodipodi:ry="0.54545456"
       d="m 27.454545,62.545456 a 0.77272731,0.54545456 0 1 1 -1.545454,0 0.77272731,0.54545456 0 1 1 1.545454,0 z"
       transform="translate(10.136364,-0.27272866)" />
    <path
       sodipodi:type="arc"
       style="fill:#c87137;fill-opacity:1;stroke:#c87137;stroke-width:2;stroke-linecap:round;stroke-linejoin:round;stroke-miterlimit:4;stroke-opacity:1;stroke-dasharray:none"
       id="path2988-4-8"
       sodipodi:cx="26.681818"
       sodipodi:cy="62.545456"
       sodipodi:rx="0.77272731"
       sodipodi:ry="0.54545456"
       d="m 27.454545,62.545456 a 0.77272731,0.54545456 0 1 1 -1.545454,0 0.77272731,0.54545456 0 1 1 1.545454,0 z"
       transform="translate(2.2272731,-0.81818321)" />
    <path
       sodipodi:type="arc"
       style="fill:#c87137;fill-opacity:1;stroke:#c87137;stroke-width:2;stroke-linecap:round;stroke-linejoin:round;stroke-miterlimit:4;stroke-opacity:1;stroke-dasharray:none"
       id="path2988-4-82"
       sodipodi:cx="26.681818"
       sodipodi:cy="62.545456"
       sodipodi:rx="0.77272731"
       sodipodi:ry="0.54545456"
       d="m 27.454545,62.545456 a 0.77272731,0.54545456 0 1 1 -1.545454,0 0.77272731,0.54545456 0 1 1 1.545454,0 z"
       transform="translate(8.1363638,-1.636365)" />
  </g>
</svg>
